<svg xmlns="http://www.w3.org/2000/svg" viewBox="0 0 100 100" width="100" height="100">
  <defs>
    <linearGradient id="grad1" x1="0%" y1="0%" x2="100%" y2="100%">
      <stop offset="0%" style="stop-color:#42b883;stop-opacity:1" />
      <stop offset="100%" style="stop-color:#35495e;stop-opacity:1" />
    </linearGradient>
  </defs>
  
  <!-- Excel 表格背景 -->
  <rect x="15" y="20" width="70" height="60" fill="white" stroke="#35495e" stroke-width="2" rx="4"/>
  
  <!-- 表格线 -->
  <line x1="15" y1="35" x2="85" y2="35" stroke="#35495e" stroke-width="1.5"/>
  <line x1="15" y1="50" x2="85" y2="50" stroke="#35495e" stroke-width="1"/>
  <line x1="15" y1="65" x2="85" y2="65" stroke="#35495e" stroke-width="1"/>
  
  <line x1="40" y1="20" x2="40" y2="80" stroke="#35495e" stroke-width="1"/>
  <line x1="60" y1="20" x2="60" y2="80" stroke="#35495e" stroke-width="1"/>
  
  <!-- 表头高亮 -->
  <rect x="15" y="20" width="70" height="15" fill="url(#grad1)" opacity="0.3" rx="4 4 0 0"/>
  
  <!-- 数据点 -->
  <circle cx="27.5" cy="42.5" r="2" fill="#42b883"/>
  <circle cx="50" cy="42.5" r="2" fill="#42b883"/>
  <circle cx="72.5" cy="42.5" r="2" fill="#42b883"/>
  
  <circle cx="27.5" cy="57.5" r="2" fill="#35495e"/>
  <circle cx="50" cy="57.5" r="2" fill="#35495e"/>
  <circle cx="72.5" cy="57.5" r="2" fill="#35495e"/>
  
  <!-- Rust 齿轮图标 -->
  <g transform="translate(70, 70) scale(0.4)">
    <circle cx="0" cy="0" r="8" fill="#ce422b"/>
    <path d="M -4,-7 L 4,-7 L 7,-4 L 7,4 L 4,7 L -4,7 L -7,4 L -7,-4 Z" fill="none" stroke="white" stroke-width="2"/>
    <circle cx="0" cy="0" r="3" fill="white"/>
  </g>
</svg>
